HIERARCHY
ROOT Hips
{
	OFFSET 0.000000 0.000000 0.000000
	CHANNELS 6 Xposition Yposition Zposition Xrotation Yrotation Zrotation
	JOINT LeftUpLeg_virtual
	{
		OFFSET 0.000000 0.000000 0.000000
		CHANNELS 3 Xrotation Yrotation Zrotation
		JOINT LeftUpLeg
		{
			OFFSET 11.394100 -6.187798 -0.413800
			CHANNELS 3 Xrotation Yrotation Zrotation
			JOINT LeftLeg
			{
				OFFSET 0.430247 -32.302673 3.732800
				CHANNELS 3 Xrotation Yrotation Zrotation
				JOINT LeftFoot
				{
					OFFSET -0.430247 -48.264931 -6.423300
					CHANNELS 3 Xrotation Yrotation Zrotation
					JOINT LeftToeBase
					{
						OFFSET 4.230900 -16.068199 23.438400
						CHANNELS 3 Xrotation Yrotation Zrotation
						JOINT LeftToe_End
						{
							OFFSET 4.510700 0.695400 19.974600
							CHANNELS 3 Xrotation Yrotation Zrotation
							End Site
							{
								OFFSET 0 0 0
							}
						}
					}
				}
			}
		}
	}
	JOINT RightUpLeg_virtual
	{
		OFFSET 0.000000 0.000000 0.000000
		CHANNELS 3 Xrotation Yrotation Zrotation
		JOINT RightUpLeg
		{
			OFFSET -11.333700 -6.187798 -0.413800
			CHANNELS 3 Xrotation Yrotation Zrotation
			JOINT RightLeg
			{
				OFFSET -0.430392 -32.302628 3.733000
				CHANNELS 3 Xrotation Yrotation Zrotation
				JOINT RightFoot
				{
					OFFSET 0.430392 -48.264973 -6.423500
					CHANNELS 3 Xrotation Yrotation Zrotation
					JOINT RightToeBase
					{
						OFFSET -4.230900 -16.068199 23.438400
						CHANNELS 3 Xrotation Yrotation Zrotation
						JOINT RightToe_End
						{
							OFFSET -4.510700 0.695400 19.974600
							CHANNELS 3 Xrotation Yrotation Zrotation
							End Site
							{
								OFFSET 0 0 0
							}
						}
					}
				}
			}
		}
	}
	JOINT Spine_virtual
	{
		OFFSET 0.000000 0.000000 0.000000
		CHANNELS 3 Xrotation Yrotation Zrotation
		JOINT Spine
		{
			OFFSET -0.002400 12.777504 0.315300
			CHANNELS 3 Xrotation Yrotation Zrotation
			JOINT Spine1
			{
				OFFSET -0.002067 5.816869 0.032633
				CHANNELS 3 Xrotation Yrotation Zrotation
				JOINT Spine1_split
				{
					OFFSET -0.002067 5.816869 0.032633
					CHANNELS 3 Xrotation Yrotation Zrotation
					JOINT Spine2
					{
						OFFSET -0.002067 5.816869 0.032633
						CHANNELS 3 Xrotation Yrotation Zrotation
						JOINT Neck_virtual
						{
							OFFSET 0.000000 0.000000 0.000000
							CHANNELS 3 Xrotation Yrotation Zrotation
							JOINT Neck
							{
								OFFSET -0.003700 21.199493 -0.826900
								CHANNELS 3 Xrotation Yrotation Zrotation
								JOINT Head
								{
									OFFSET 0.000000 20.442200 4.834800
									CHANNELS 3 Xrotation Yrotation Zrotation
									JOINT HeadTop_End
									{
										OFFSET 0.000000 34.668396 4.968400
										CHANNELS 3 Xrotation Yrotation Zrotation
										End Site
										{
											OFFSET 0 0 0
										}
									}
								}
							}
						}
						JOINT LeftShoulder_virtual
						{
							OFFSET 0.000000 0.000000 0.000000
							CHANNELS 3 Xrotation Yrotation Zrotation
							JOINT LeftShoulder
							{
								OFFSET 3.288150 8.794197 -1.372250
								CHANNELS 3 Xrotation Yrotation Zrotation
								JOINT LeftShoulder_split
								{
									OFFSET 3.288150 8.794197 -1.372250
									CHANNELS 3 Xrotation Yrotation Zrotation
									JOINT LeftArm
									{
										OFFSET 11.953299 -2.279007 -0.146200
										CHANNELS 3 Xrotation Yrotation Zrotation
										JOINT LeftForeArm
										{
											OFFSET 18.448900 0.000000 0.000000
											CHANNELS 3 Xrotation Yrotation Zrotation
											JOINT LeftHand
											{
												OFFSET 29.527798 0.000000 0.000000
												CHANNELS 3 Xrotation Yrotation Zrotation
												End Site
												{
													OFFSET 0 0 0
												}
											}
										}
									}
								}
							}
						}
						JOINT RightShoulder_virtual
						{
							OFFSET 0.000000 0.000000 0.000000
							CHANNELS 3 Xrotation Yrotation Zrotation
							JOINT RightShoulder
							{
								OFFSET -3.249400 8.794197 -1.372250
								CHANNELS 3 Xrotation Yrotation Zrotation
								JOINT RightShoulder_split
								{
									OFFSET -3.249400 8.794197 -1.372250
									CHANNELS 3 Xrotation Yrotation Zrotation
									JOINT RightArm
									{
										OFFSET -11.953299 -2.279007 -0.146200
										CHANNELS 3 Xrotation Yrotation Zrotation
										JOINT RightForeArm
										{
											OFFSET -18.448900 0.000000 0.000000
											CHANNELS 3 Xrotation Yrotation Zrotation
											JOINT RightHand
											{
												OFFSET -29.527802 0.000000 0.000000
												CHANNELS 3 Xrotation Yrotation Zrotation
												End Site
												{
													OFFSET 0 0 0
												}
											}
										}
									}
								}
							}
						}
					}
				}
			}
		}
	}
}
MOTION
Frames: 7
Frame Time: 0.03333333
0.858604 101.654785 -0.816040 0.000000 0.000000 0.000000 -3.956813 -5.953128 -3.136607 -18.595426 12.273334 13.815937 21.069059 4.607470 3.298818 0.484233 0.796358 -7.751653 -0.780149 0.368819 -1.827594 0.000000 0.000000 0.000000 -3.619825 -4.085973 -3.206574 -5.155376 -9.123330 -0.722841 8.572319 -8.528112 -4.933536 4.347660 -0.974692 2.824375 -8.216564 0.005778 0.040339 0.000000 0.000000 0.000000 -4.168279 -5.867825 -3.452023 2.913867 0.404578 2.669394 1.764629 0.001936 1.794074 1.094268 -0.251381 -0.052071 0.000000 0.000000 0.000000 1.309234 0.481488 1.660723 6.065916 1.131380 -0.131598 -5.368609 0.793435 -0.924969 0.000000 0.000000 0.000000 1.064334 0.606350 1.453983 1.738248 -15.510337 -12.773610 -2.694134 -0.428037 -1.433805 8.761412 -20.122610 -68.136854 -1.856392 -2.642908 0.143716 0.000000 0.000000 0.000000 1.403226 0.514205 1.668857 1.878612 12.069410 15.529704 0.344906 2.538312 -0.991468 12.132307 28.024205 57.446003 0.463301 11.097807 0.782859 0.000000 0.000000 0.000000 
0.956314 101.662193 -0.809566 0.000000 0.000000 0.000000 -3.952687 -6.103736 -3.126525 -18.544578 12.240936 13.814029 21.169302 4.629623 3.241938 0.400391 0.811755 -7.806919 -0.785391 0.364870 -1.840980 0.000000 0.000000 0.000000 -3.599130 -4.152938 -3.187682 -5.168070 -9.239785 -0.755655 8.489931 -8.421595 -4.966369 4.453893 -1.038246 2.783974 -8.053498 -0.049863 0.115309 0.000000 0.000000 0.000000 -4.180401 -6.042220 -3.476359 2.927871 0.384247 2.675916 1.756414 -0.014645 1.800536 1.067072 -0.218087 -0.066185 0.000000 0.000000 0.000000 1.309414 0.482126 1.660271 6.082724 1.160322 -0.096045 -5.405869 0.881336 -0.943563 0.000000 0.000000 0.000000 1.087404 0.589815 1.469537 1.729051 -15.569619 -12.775424 -2.689516 -0.527264 -1.475371 8.673687 -20.125851 -68.203025 -1.862938 -2.712185 0.147786 0.000000 0.000000 0.000000 1.393332 0.502943 1.688153 1.857635 12.091362 15.580107 0.283751 2.539884 -0.973034 12.203282 28.040583 57.348208 0.481193 10.899638 0.817728 0.000000 0.000000 0.000000 
1.039273 101.673729 -0.814693 0.000000 0.000000 0.000000 -3.988251 -6.395587 -3.139338 -18.456472 12.217305 13.886012 21.388937 4.715038 3.160115 0.217543 0.855739 -7.876173 -0.790662 0.363813 -1.866743 0.000000 0.000000 0.000000 -3.637010 -4.311834 -3.187607 -5.263879 -9.358694 -0.806594 8.515610 -8.176411 -4.996744 4.497058 -1.193383 2.740769 -7.877209 -0.093640 0.183459 0.000000 0.000000 0.000000 -4.215717 -6.328020 -3.513399 2.954772 0.373755 2.704198 1.748124 -0.037999 1.801856 1.031433 -0.189547 -0.082686 0.000000 0.000000 0.000000 1.305337 0.473731 1.654487 6.121655 1.211426 -0.059716 -5.464241 1.048477 -1.015020 0.000000 0.000000 0.000000 1.106772 0.569542 1.479772 1.714988 -15.640370 -12.778704 -2.608907 -0.592704 -1.533872 8.608696 -20.014840 -68.287022 -1.845454 -2.778306 0.151215 0.000000 0.000000 0.000000 1.374772 0.487354 1.706714 1.839047 12.183907 15.606373 0.201860 2.556852 -0.961772 12.330664 28.010305 57.209818 0.455346 10.729637 0.883210 0.000000 0.000000 0.000000 
1.094599 101.686714 -0.831562 0.000000 0.000000 0.000000 -4.061064 -6.775088 -3.167127 -18.334787 12.203010 14.014495 21.658018 4.859296 3.059811 -0.036017 0.918920 -7.954198 -0.796845 0.364820 -1.894861 0.000000 0.000000 0.000000 -3.715947 -4.547241 -3.198906 -5.446174 -9.474242 -0.862112 8.676182 -7.799735 -5.013886 4.522410 -1.416287 2.736614 -7.737596 -0.127380 0.231978 0.000000 0.000000 0.000000 -4.269772 -6.691503 -3.561102 2.992819 0.374804 2.751859 1.743451 -0.060846 1.799062 1.014557 -0.184846 -0.070865 0.000000 0.000000 0.000000 1.294516 0.461392 1.644523 6.169500 1.274459 -0.024512 -5.537111 1.261223 -1.116759 0.000000 0.000000 0.000000 1.123774 0.548945 1.484767 1.693919 -15.717397 -12.783343 -2.499790 -0.574863 -1.598963 8.574059 -19.776406 -68.358172 -1.815698 -2.810776 0.153505 0.000000 0.000000 0.000000 1.356477 0.470118 1.721454 1.823848 12.335778 15.595152 0.126225 2.575101 -0.952277 12.506007 27.989678 57.051443 0.406617 10.605654 0.956673 0.000000 0.000000 0.000000 
1.131524 101.686340 -0.867874 0.000000 0.000000 0.000000 -4.158719 -7.193142 -3.208573 -18.169278 12.195434 14.180113 21.912432 5.052502 2.949293 -0.313614 0.986118 -8.040228 -0.805764 0.363858 -1.917000 0.000000 0.000000 0.000000 -3.818803 -4.847136 -3.221508 -5.701369 -9.581663 -0.902096 8.940711 -7.310551 -5.029570 4.530712 -1.701902 2.775700 -7.692571 -0.155764 0.243553 0.000000 0.000000 0.000000 -4.344226 -7.118786 -3.618768 3.038792 0.388568 2.814884 1.745641 -0.076616 1.794516 1.020079 -0.211272 -0.047349 0.000000 0.000000 0.000000 1.279914 0.452145 1.630819 6.211500 1.340740 0.011194 -5.613781 1.477713 -1.216448 0.000000 0.000000 0.000000 1.143596 0.532668 1.485909 1.668495 -15.795717 -12.776139 -2.375429 -0.471066 -1.668633 8.542034 -19.451023 -68.397856 -1.786948 -2.808365 0.151211 0.000000 0.000000 0.000000 1.347392 0.457459 1.730702 1.812833 12.530773 15.531876 0.038325 2.578845 -0.938602 12.736562 28.048636 56.872803 0.362187 10.547938 1.014887 0.000000 0.000000 0.000000 
1.161564 101.667473 -0.909393 0.000000 0.000000 0.000000 -4.266368 -7.617468 -3.260614 -17.956590 12.185895 14.360090 22.121975 5.279019 2.839449 -0.560288 1.041807 -8.135028 -0.827097 0.361027 -1.928090 0.000000 0.000000 0.000000 -3.925332 -5.183633 -3.253045 -5.991791 -9.679180 -0.912170 9.290926 -6.748691 -5.053771 4.481205 -2.057641 2.809963 -7.700608 -0.184486 0.226770 0.000000 0.000000 0.000000 -4.439171 -7.569327 -3.684133 3.087223 0.413072 2.888201 1.756337 -0.078984 1.792041 1.030805 -0.276859 -0.013825 0.000000 0.000000 0.000000 1.266411 0.452213 1.616326 6.245652 1.402835 0.042524 -5.678667 1.643113 -1.291441 0.000000 0.000000 0.000000 1.171758 0.523512 1.485335 1.642837 -15.865438 -12.747846 -2.266037 -0.308867 -1.767682 8.501503 -19.087560 -68.400588 -1.766413 -2.771809 0.144345 0.000000 0.000000 0.000000 1.349476 0.453277 1.736216 1.804376 12.752420 15.417578 -0.049876 2.576046 -0.913878 13.002388 28.213946 56.702864 0.343009 10.567786 1.037353 0.000000 0.000000 0.000000 
1.190635 101.645950 -0.946632 0.000000 0.000000 0.000000 -4.385038 -8.061093 -3.318688 -17.695301 12.169438 14.543448 22.284483 5.526181 2.745277 -0.737682 1.073522 -8.236486 -0.853015 0.356943 -1.929488 0.000000 0.000000 0.000000 -4.030915 -5.562926 -3.292057 -6.304063 -9.773393 -0.887831 9.708458 -6.161537 -5.084487 4.366714 -2.488748 2.774637 -7.666451 -0.213448 0.203486 0.000000 0.000000 0.000000 -4.557282 -8.024281 -3.755425 3.133279 0.442690 2.962833 1.772303 -0.068812 1.794867 1.034933 -0.377815 0.003673 0.000000 0.000000 0.000000 1.256002 0.462539 1.602925 6.281346 1.456864 0.070537 -5.727099 1.722778 -1.337754 0.000000 0.000000 0.000000 1.210173 0.520808 1.485269 1.625233 -15.921781 -12.683821 -2.195003 -0.100975 -1.872381 8.445079 -18.718139 -68.385568 -1.752334 -2.701009 0.133182 0.000000 0.000000 0.000000 1.367945 0.459302 1.744288 1.804627 12.984450 15.269450 -0.151045 2.569439 -0.871277 13.244741 28.435473 56.555892 0.348817 10.707814 1.018155 0.000000 0.000000 0.000000 
